<?xml version="1.0" encoding="utf-8"?>
<!-- Generator: Adobe Illustrator 25.4.0, SVG Export Plug-In . SVG Version: 6.00 Build 0)  -->
<svg version="1.1" id="Layer_1" xmlns="http://www.w3.org/2000/svg" xmlns:xlink="http://www.w3.org/1999/xlink" x="0px" y="0px"
	 viewBox="0 0 1280 1024" style="enable-background:new 0 0 1280 1024;" xml:space="preserve">
<style type="text/css">
	.st0{fill:url(#SVGID_1_);}
	.st1{fill:url(#SVGID_00000099647556672238919670000002326255569271351221_);}
	.st2{fill:url(#SVGID_00000062161922950047252300000003444059979088119452_);}
	.st3{fill:#FFFF00;}
</style>
<linearGradient id="SVGID_1_" gradientUnits="userSpaceOnUse" x1="543.07" y1="557.7014" x2="743.8927" y2="557.7014" gradientTransform="matrix(1 0 0 -1 0 1022.6614)">
	<stop  offset="0" style="stop-color:#FFFF00"/>
	<stop  offset="1" style="stop-color:#67FF08"/>
</linearGradient>
<path class="st0" d="M656.5,417.2l10.8,17.8l44.8,78.2h-169l7.5,13c2.5,4.3,7.1,7,12.1,7h177c2.3,0,4.2-1.9,4.2-4.2
	c0-0.7-0.2-1.5-0.6-2.1l-75-130.1L656.5,417.2z"/>
<linearGradient id="SVGID_00000053541807936394030020000011024088456199807163_" gradientUnits="userSpaceOnUse" x1="542.973" y1="602.5414" x2="699.3101" y2="602.5414" gradientTransform="matrix(1 0 0 -1 0 1022.6614)">
	<stop  offset="0" style="stop-color:#FFFF00"/>
	<stop  offset="1" style="stop-color:#67FF08"/>
</linearGradient>
<path style="fill:url(#SVGID_00000053541807936394030020000011024088456199807163_);" d="M654.2,341.1L619.6,401l-45.1,78.2h113.3
	l11.5,20H547.2c-2.3,0-4.2-1.9-4.2-4.2c0-0.7,0.2-1.5,0.6-2.1l83.6-144.7c2.5-4.3,7.1-7,12.1-7L654.2,341.1z"/>
<linearGradient id="SVGID_00000099638617404091339130000009060054920936141696_" gradientUnits="userSpaceOnUse" x1="595.31" y1="585.9948" x2="774.0557" y2="585.9948" gradientTransform="matrix(1 0 0 -1 0 1022.6614)">
	<stop  offset="0" style="stop-color:#FFFF00"/>
	<stop  offset="1" style="stop-color:#67FF08"/>
</linearGradient>
<path style="fill:url(#SVGID_00000099638617404091339130000009060054920936141696_);" d="M618.3,475l11.5-20l45.1-78.2l89.7,155.4
	l7.5-13c2.5-4.3,2.5-9.7,0-14l-85.6-148.3l-7.9-13.7c-1.2-2-3.7-2.7-5.7-1.5c-0.6,0.4-1.2,0.9-1.5,1.5L595.3,475H618.3z"/>
<path class="st3" d="M547,544.3h5.4v30.2h16.3v4.7H547V544.3z"/>
<path class="st3" d="M605.2,544.3h4.4v5.8h-1.5l-9.9,29.1h-5.7L605.2,544.3z M600.2,565.4H616l1.6,4.4h-18.9L600.2,565.4z
	 M608.2,550v-5.8h2.9l12.7,34.9h-5.7L608.2,550z"/>
<path class="st3" d="M647.8,544.3h5l21.5,30.8l-5.7-5.1h2.3v-25.7h5.4v34.9h-5l-21.5-30.9l5.7,5.1h-2.3v25.8h-5.4L647.8,544.3z"/>
<path class="st3" d="M700.2,544.3h22.2v4.7h-16.7v10.2h15.8v4.5h-15.8v10.8h16.8v4.7h-22.2V544.3z"/>
<path class="st3" d="M764.8,549v-0.1h-18.5v-4.6h23.8v4.7L755,579.2h-5.7L764.8,549z"/>
</svg>
