<svg id="Layer_1" data-name="Layer 1" xmlns="http://www.w3.org/2000/svg" xmlns:xlink="http://www.w3.org/1999/xlink" viewBox="0 0 1280 1024"><defs><style>.cls-1{fill:url(#Sfumatura_senza_nome_126);}.cls-2{fill:url(#linear-gradient);}.cls-3{fill:url(#Sfumatura_senza_nome_253);}.cls-4{fill:#8733ff;}</style><linearGradient id="Sfumatura_senza_nome_126" x1="560.19" y1="517.73" x2="761.06" y2="517.73" gradientUnits="userSpaceOnUse"><stop offset="0" stop-color="#531db5"/><stop offset="0.46" stop-color="#8733ff"/></linearGradient><linearGradient id="linear-gradient" x1="560.12" y1="472.92" x2="716.46" y2="472.92" gradientUnits="userSpaceOnUse"><stop offset="0" stop-color="#ff0"/><stop offset="1" stop-color="#67ff08"/></linearGradient><linearGradient id="Sfumatura_senza_nome_253" x1="612.46" y1="489.46" x2="791.21" y2="489.46" gradientUnits="userSpaceOnUse"><stop offset="0" stop-color="#7d33a9"/><stop offset="0.8" stop-color="#ff31fa"/></linearGradient></defs><path class="cls-1" d="M673.65,470l10.77,17.78L729.23,566l-169,0,7.48,13a14,14,0,0,0,12.12,7H756.86a4.19,4.19,0,0,0,3.63-6.29l-75-130.11Z"/><path class="cls-2" d="M671.33,393.92,636.76,453.8,591.62,532H704.94l11.52,19.95H564.32a4.19,4.19,0,0,1-3.63-6.29l83.56-144.73a14,14,0,0,1,12.12-7Z"/><path class="cls-3" d="M635.5,527.77l11.53-20,45.13-78.18L781.87,585l7.47-13a14,14,0,0,0,0-14L703.68,409.68,695.79,396a4.19,4.19,0,0,0-7.26,0L612.46,527.77Z"/><path class="cls-4" d="M564.11,597.06h5.42v30.22h16.29V632H564.11Z"/><path class="cls-4" d="M622.37,597.06h4.41v5.78h-1.53L615.38,632h-5.72Zm-5,21.13h15.78l1.57,4.35H615.84Zm8-15.35v-5.78h2.88L640.93,632h-5.71Z"/><path class="cls-4" d="M664.9,597.06h5l21.5,30.85-5.74-5.08H688V597.06h5.39V632h-5l-21.49-30.91,5.74,5.06H670.3V632h-5.4Z"/><path class="cls-4" d="M717.32,597.06h22.17v4.69H722.75v10.17H738.6v4.55H722.75v10.81h16.74V632H717.32Z"/><path class="cls-4" d="M782,601.75v-.12H763.52v-4.57h23.81v4.72L772.13,632h-5.68Z"/></svg>