<svg id="Layer_1" xmlns="http://www.w3.org/2000/svg" xmlns:xlink="http://www.w3.org/1999/xlink" viewBox="0 0 1280 1024"><defs><style>.cls-1{fill:url(#linear-gradient);}.cls-2{fill:url(#linear-gradient-2);}.cls-3{fill:url(#linear-gradient-3);}.cls-4{fill:#ff0;}</style><linearGradient id="linear-gradient" x1="543.03" y1="464.94" x2="743.9" y2="464.94" gradientUnits="userSpaceOnUse"><stop offset="0" stop-color="#ff0"></stop><stop offset="1" stop-color="#67ff08"></stop></linearGradient><linearGradient id="linear-gradient-2" x1="542.97" y1="420.13" x2="699.31" y2="420.13" xlink:href="#linear-gradient"></linearGradient><linearGradient id="linear-gradient-3" x1="595.31" y1="436.67" x2="774.05" y2="436.67" xlink:href="#linear-gradient"></linearGradient></defs><rect x="0.49" y="2.48" width="1280.25" height="1021.5"></rect><path class="cls-1" d="M656.49,417.22,667.27,435l44.8,78.16-169,0,7.48,13a14,14,0,0,0,12.12,7H739.7a4.2,4.2,0,0,0,3.63-6.3l-75-130.1Z"></path><path class="cls-2" d="M654.17,341.12,619.6,401l-45.14,78.18H687.78l11.53,19.95H547.17a4.2,4.2,0,0,1-3.64-6.29l83.56-144.73a14,14,0,0,1,12.13-7Z"></path><path class="cls-3" d="M618.35,475l11.52-20L675,376.84l89.7,155.37,7.48-13a14,14,0,0,0,0-14L686.53,356.89l-7.89-13.67a4.2,4.2,0,0,0-7.27,0L595.31,475Z"></path><path class="cls-4" d="M547,544.27h5.42v30.22h16.29v4.7H547Z"></path><path class="cls-4" d="M605.21,544.27h4.41v5.78h-1.53l-9.87,29.14h-5.71Zm-5,21.12H616l1.58,4.36H598.68Zm8-15.34v-5.78h2.88l12.68,34.92h-5.71Z"></path><path class="cls-4" d="M647.75,544.27h5l21.49,30.85L668.51,570h2.35V544.27h5.4v34.92h-5l-21.49-30.91,5.73,5.06h-2.34v25.85h-5.4Z"></path><path class="cls-4" d="M700.17,544.27h22.17V549H705.59v10.17h15.85v4.55H705.59v10.81h16.75v4.7H700.17Z"></path><path class="cls-4" d="M764.81,549v-.12H746.36v-4.57h23.82V549L755,579.19h-5.69Z"></path></svg>